<?xml version="1.0" encoding="UTF-8" standalone="no" ?>
<!DOCTYPE svg PUBLIC "-//W3C//DTD SVG 1.1//EN" "http://www.w3.org/Graphics/SVG/1.1/DTD/svg11.dtd">
<svg xmlns="http://www.w3.org/2000/svg" xmlns:xlink="http://www.w3.org/1999/xlink" version="1.1" width="350" height="350" viewBox="0 0 350 350" xml:space="preserve">
<desc>Created with Fabric.js 1.7.22</desc>
<defs>
</defs>
<g id="icon" style="stroke: none; stroke-width: 1; stroke-dasharray: none; stroke-linecap: butt; stroke-linejoin: miter; stroke-miterlimit: 10; fill: none; fill-rule: nonzero; opacity: 1;" transform="translate(-1.9444444444444287 -1.9444444444444287) scale(3.89 3.89)" >
	<path d="M 22.938 90 c -5.541 0 -10.048 -4.508 -10.048 -10.049 v -2.84 h -2.841 C 4.508 77.111 0 72.604 0 67.063 s 4.508 -10.049 10.048 -10.049 h 8.727 l 38.238 -38.238 v -8.727 C 57.014 4.508 61.521 0 67.063 0 s 10.049 4.508 10.049 10.048 v 2.841 h 2.84 C 85.492 12.889 90 17.397 90 22.938 c 0 5.541 -4.508 10.049 -10.049 10.049 h -8.727 L 32.986 71.225 v 8.727 C 32.986 85.492 28.479 90 22.938 90 z M 10.048 61.014 C 6.713 61.014 4 63.728 4 67.063 s 2.713 6.049 6.048 6.049 h 4.841 c 1.104 0 2 0.896 2 2 v 4.84 c 0 3.335 2.713 6.049 6.048 6.049 c 3.335 0 6.049 -2.714 6.049 -6.049 v -9.555 c 0 -0.53 0.211 -1.039 0.586 -1.414 l 39.41 -39.41 c 0.375 -0.375 0.884 -0.586 1.414 -0.586 h 9.555 c 3.335 0 6.049 -2.713 6.049 -6.049 c 0 -3.335 -2.714 -6.048 -6.049 -6.048 h -4.84 c -1.104 0 -2 -0.896 -2 -2 v -4.841 C 73.111 6.713 70.397 4 67.063 4 s -6.049 2.713 -6.049 6.048 v 9.556 c 0 0.53 -0.211 1.039 -0.586 1.414 l -39.41 39.41 c -0.375 0.375 -0.884 0.586 -1.414 0.586 H 10.048 z" style="stroke: none; stroke-width: 1; stroke-dasharray: none; stroke-linecap: butt; stroke-linejoin: miter; stroke-miterlimit: 10; fill: rgb(0,0,0); fill-rule: nonzero; opacity: 1;" transform=" matrix(1 0 0 1 0 0) " stroke-linecap="round" />
</g>
</svg>