<?xml version="1.0" encoding="UTF-8" standalone="no" ?>
<!DOCTYPE svg PUBLIC "-//W3C//DTD SVG 1.1//EN" "http://www.w3.org/Graphics/SVG/1.1/DTD/svg11.dtd">
<svg xmlns="http://www.w3.org/2000/svg" xmlns:xlink="http://www.w3.org/1999/xlink" version="1.1" width="350" height="350" viewBox="0 0 350 350" xml:space="preserve">
<desc>Created with Fabric.js 1.7.22</desc>
<defs>
</defs>
<g id="icon" style="stroke: none; stroke-width: 1; stroke-dasharray: none; stroke-linecap: butt; stroke-linejoin: miter; stroke-miterlimit: 10; fill: none; fill-rule: nonzero; opacity: 1;" transform="translate(-1.9444444444444287 -1.9444444444444287) scale(3.89 3.89)" >
	<path d="M 62.882 86.269 c -4.713 0 -9.138 -1.939 -12.46 -5.458 c -1.452 -1.54 -3.376 -2.389 -5.413 -2.389 c -2.038 0 -3.961 0.849 -5.413 2.388 c -3.321 3.52 -7.746 5.459 -12.46 5.459 s -9.139 -1.939 -12.46 -5.458 c -6.783 -7.19 -6.783 -18.887 0 -26.075 l 9.205 -10.435 c 5.522 -6.258 13.027 -9.706 21.129 -9.706 c 0 0 0 0 0 0 c 8.102 0 15.606 3.447 21.128 9.706 l 9.229 10.461 c 6.759 7.191 6.751 18.868 -0.023 26.049 C 72.021 84.331 67.596 86.269 62.882 86.269 z M 45.009 74.422 c 3.151 0 6.106 1.294 8.324 3.644 c 2.557 2.71 5.949 4.203 9.549 4.203 c 3.601 0 6.993 -1.492 9.55 -4.204 c 5.354 -5.675 5.354 -14.909 0 -20.582 l -0.045 -0.05 l -9.251 -10.485 c -4.751 -5.386 -11.189 -8.351 -18.128 -8.352 c -6.939 0 -13.377 2.966 -18.129 8.352 l -9.25 10.485 c -5.4 5.724 -5.4 14.957 -0.045 20.633 c 2.558 2.71 5.95 4.203 9.55 4.203 s 6.992 -1.492 9.55 -4.204 C 38.902 75.716 41.858 74.422 45.009 74.422 z" style="stroke: none; stroke-width: 1; stroke-dasharray: none; stroke-linecap: butt; stroke-linejoin: miter; stroke-miterlimit: 10; fill: rgb(0,0,0); fill-rule: nonzero; opacity: 1;" transform=" matrix(1 0 0 1 0 0) " stroke-linecap="round" />
	<path d="M 32.462 30.395 c -4.796 0 -9.604 -2.901 -11.106 -9.966 C 19.7 12.633 23.327 5.234 29.443 3.934 c 6.119 -1.301 12.441 3.985 14.098 11.779 c 1.77 8.327 -3.009 13.237 -8.53 14.411 C 34.175 30.302 33.319 30.395 32.462 30.395 z M 31.34 7.736 c -0.358 0 -0.714 0.037 -1.064 0.111 c -3.959 0.841 -6.204 6.113 -5.006 11.75 c 1.084 5.097 4.414 7.567 8.91 6.615 c 4.495 -0.956 6.532 -4.569 5.449 -9.666 l 0 0 c -0.603 -2.833 -1.975 -5.303 -3.866 -6.954 C 34.369 8.374 32.831 7.736 31.34 7.736 z" style="stroke: none; stroke-width: 1; stroke-dasharray: none; stroke-linecap: butt; stroke-linejoin: miter; stroke-miterlimit: 10; fill: rgb(0,0,0); fill-rule: nonzero; opacity: 1;" transform=" matrix(1 0 0 1 0 0) " stroke-linecap="round" />
	<path d="M 57.555 30.395 c -0.856 0 -1.711 -0.092 -2.548 -0.27 c -5.521 -1.174 -10.3 -6.085 -8.53 -14.412 c 0.78 -3.674 2.609 -6.919 5.147 -9.135 c 2.7 -2.358 5.877 -3.299 8.95 -2.644 c 3.071 0.652 5.593 2.803 7.101 6.056 c 1.417 3.058 1.768 6.765 0.986 10.439 C 67.16 27.493 62.351 30.395 57.555 30.395 z M 58.678 7.736 c -1.491 0 -3.029 0.638 -4.423 1.856 c -1.891 1.651 -3.263 4.12 -3.866 6.954 c -1.083 5.097 0.953 8.71 5.449 9.666 c 4.496 0.953 7.826 -1.517 8.91 -6.615 c 0.602 -2.833 0.353 -5.647 -0.703 -7.924 c -0.966 -2.082 -2.494 -3.441 -4.303 -3.826 C 59.392 7.772 59.036 7.736 58.678 7.736 z" style="stroke: none; stroke-width: 1; stroke-dasharray: none; stroke-linecap: butt; stroke-linejoin: miter; stroke-miterlimit: 10; fill: rgb(0,0,0); fill-rule: nonzero; opacity: 1;" transform=" matrix(1 0 0 1 0 0) " stroke-linecap="round" />
	<path d="M 77.828 46.507 c -1.726 0 -3.433 -0.407 -4.988 -1.133 c -5.116 -2.385 -8.667 -8.245 -5.07 -15.961 c 1.587 -3.404 4.098 -6.154 7.07 -7.743 c 3.162 -1.69 6.47 -1.89 9.316 -0.563 c 5.667 2.643 7.536 10.669 4.169 17.892 l 0 0 C 85.821 44.368 81.778 46.507 77.828 46.507 z M 80.215 24.247 c -1.117 0 -2.305 0.319 -3.489 0.952 c -2.213 1.183 -4.107 3.281 -5.331 5.906 c -2.202 4.723 -1.029 8.702 3.135 10.644 c 4.164 1.943 7.967 0.282 10.169 -4.441 c 2.436 -5.223 1.434 -10.865 -2.235 -12.575 C 81.768 24.408 81.009 24.247 80.215 24.247 z" style="stroke: none; stroke-width: 1; stroke-dasharray: none; stroke-linecap: butt; stroke-linejoin: miter; stroke-miterlimit: 10; fill: rgb(0,0,0); fill-rule: nonzero; opacity: 1;" transform=" matrix(1 0 0 1 0 0) " stroke-linecap="round" />
	<path d="M 12.156 46.529 c -1.238 0 -2.453 -0.214 -3.601 -0.643 c -2.893 -1.083 -5.266 -3.464 -6.862 -6.887 c -1.588 -3.404 -2.08 -7.095 -1.387 -10.393 c 0.737 -3.508 2.71 -6.171 5.556 -7.498 c 2.845 -1.328 6.153 -1.127 9.315 0.563 c 2.972 1.589 5.482 4.339 7.07 7.743 l 0 0 c 1.596 3.423 1.895 6.771 0.865 9.684 c -0.959 2.71 -3.066 4.94 -5.935 6.277 C 15.533 46.142 13.823 46.529 12.156 46.529 z M 9.803 24.247 c -0.795 0 -1.553 0.161 -2.25 0.486 c -3.668 1.71 -4.67 7.352 -2.234 12.575 c 1.144 2.453 2.748 4.123 4.638 4.831 c 1.704 0.639 3.616 0.503 5.53 -0.39 c 1.914 -0.893 3.247 -2.271 3.854 -3.986 c 0.673 -1.903 0.425 -4.205 -0.719 -6.658 l 0 0 c -1.224 -2.625 -3.117 -4.722 -5.331 -5.906 C 12.109 24.566 10.92 24.247 9.803 24.247 z" style="stroke: none; stroke-width: 1; stroke-dasharray: none; stroke-linecap: butt; stroke-linejoin: miter; stroke-miterlimit: 10; fill: rgb(0,0,0); fill-rule: nonzero; opacity: 1;" transform=" matrix(1 0 0 1 0 0) " stroke-linecap="round" />
</g>
</svg>